<svg xmlns="http://www.w3.org/2000/svg" viewBox="0 0 512 512" fill="none">
  <defs>
    <linearGradient id="g" x1="0" y1="0" x2="1" y2="1">
      <stop offset="0" stop-color="#4f46e5"/>
      <stop offset="1" stop-color="#7c3aed"/>
    </linearGradient>
  </defs>
  <rect width="512" height="512" rx="112" fill="url(#g)"/>
  <path d="M164 188c0-26.51 21.49-48 48-48h88c26.51 0 48 21.49 48 48v24h8c22.091 0 40 17.909 40 40v64c0 22.091-17.909 40-40 40h-8v24c0 26.51-21.49 48-48 48h-88c-26.51 0-48-21.49-48-48v-24h-8c-22.091 0-40-17.909-40-40v-64c0-22.091 17.909-40 40-40h8v-24Zm48-16c-8.837 0-16 7.163-16 16v24h136v-24c0-8.837-7.163-16-16-16h-104Zm-16 184v24c0 8.837 7.163 16 16 16h104c8.837 0 16-7.163 16-16v-24H196Zm-56-104v64c0 4.418 3.582 8 8 8h16v-80h-16c-4.418 0-8 3.582-8 8Zm264-8h-16v80h16c4.418 0 8-3.582 8-8v-64c0-4.418-3.582-8-8-8Z" fill="#fff" opacity="0.95"/>
</svg>
